<svg width="43" height="24" viewBox="0 0 43 24" fill="none" xmlns="http://www.w3.org/2000/svg">
<path d="M17.8911 4.13129C13.5526 4.13129 10.2153 7.74462 10.2153 12.4226C10.2153 17.165 13.6133 20.6816 18.2248 20.6816C20.0755 20.6816 21.7442 20.1009 23.1701 18.9717C23.7466 18.52 23.9589 18.1329 23.9589 17.5522C23.9589 16.7456 23.3825 16.1327 22.624 16.1327C22.351 16.1327 22.0779 16.2617 21.8049 16.4553C20.8037 17.2618 19.5901 17.6812 18.3159 17.6812C15.6764 17.6812 13.8864 16.0681 13.4616 13.5195H22.9881C24.1106 13.5195 24.8084 12.8097 24.8084 11.6483V11.487C24.8084 7.22843 21.8655 4.13129 17.8911 4.13129ZM17.8001 7.00259C20.0452 7.00259 21.5622 8.58342 21.6228 10.874H13.5223C14.0077 8.55116 15.646 7.00259 17.8001 7.00259Z" fill="#16191F"/>
<path d="M30.2789 9.26092C31.5835 9.26092 32.615 8.16401 32.615 6.77675C32.615 5.3895 31.5835 4.26034 30.2789 4.26034C28.944 4.26034 27.8822 5.3895 27.8822 6.77675C27.8822 8.16401 28.944 9.26092 30.2789 9.26092ZM30.2789 20.6816C31.5835 20.6816 32.615 19.5847 32.615 18.1974C32.615 16.8102 31.5835 15.681 30.2789 15.681C28.944 15.681 27.8822 16.8102 27.8822 18.1974C27.8822 19.5847 28.944 20.6816 30.2789 20.6816Z" fill="#16191F"/>
<path fill-rule="evenodd" clip-rule="evenodd" d="M8.2814 0.805787C8.78253 1.62562 8.56378 2.72221 7.79281 3.2551C1.84226 7.36806 1.84226 16.6319 7.79281 20.7449C8.56378 21.2778 8.78253 22.3744 8.2814 23.1942C7.78027 24.014 6.74902 24.2466 5.97805 23.7137C-1.99268 18.2044 -1.99268 5.79554 5.97805 0.286236C6.74902 -0.246652 7.78027 -0.0140413 8.2814 0.805787Z" fill="#16191F"/>
<path fill-rule="evenodd" clip-rule="evenodd" d="M34.7186 23.1942C34.2175 22.3744 34.4362 21.2778 35.2072 20.7449C41.1577 16.6319 41.1577 7.36808 35.2072 3.25512C34.4362 2.72223 34.2175 1.62563 34.7186 0.805806C35.2197 -0.0140238 36.251 -0.246634 37.0219 0.286255C44.9927 5.79556 44.9927 18.2045 37.0219 23.7138C36.251 24.2467 35.2197 24.014 34.7186 23.1942Z" fill="#16191F"/>
</svg>
