<svg width="20" height="20" viewBox="0 0 20 20" fill="none" xmlns="http://www.w3.org/2000/svg">
<path d="M6.66671 10C6.66671 9.07919 5.92087 8.33335 5.00004 8.33335C4.07921 8.33335 3.33337 9.07919 3.33337 10C3.33337 10.9209 4.07921 11.6667 5.00004 11.6667C5.92087 11.6667 6.66671 10.9209 6.66671 10ZM8.33337 10C8.33337 10.9209 9.07921 11.6667 10 11.6667C10.9209 11.6667 11.6667 10.9209 11.6667 10C11.6667 9.07919 10.9209 8.33335 10 8.33335C9.07921 8.33335 8.33337 9.07919 8.33337 10ZM13.3334 10C13.3334 10.9209 14.0792 11.6667 15 11.6667C15.9209 11.6667 16.6667 10.9209 16.6667 10C16.6667 9.07919 15.9209 8.33335 15 8.33335C14.0792 8.33335 13.3334 9.07919 13.3334 10Z" fill="#ECEDF1" fill-opacity="0.74"/>
</svg>
